<mxfile host="app.diagrams.net" agent="Mozilla/5.0 (X11; Linux x86_64) AppleWebKit/537.36 (KHTML, like Gecko) Chrome/130.0.0.0 Safari/537.36" version="24.8.3">
  <diagram name="PÃ¡gina-1" id="FMIssGx31ZWzAPNsEll5">
    <mxGraphModel dx="1259" dy="614" grid="1" gridSize="10" guides="1" tooltips="1" connect="1" arrows="1" fold="1" page="1" pageScale="1" pageWidth="827" pageHeight="1169" math="0" shadow="0">
      <root>
        <mxCell id="0" />
        <mxCell id="1" parent="0" />
        <mxCell id="IcSTJW2ZjOs-U5tJtDkX-16" style="hachureGap=4;orthogonalLoop=1;jettySize=auto;html=1;exitX=0.5;exitY=0;exitDx=0;exitDy=0;exitPerimeter=0;entryX=0;entryY=0.5;entryDx=0;entryDy=0;entryPerimeter=0;fontFamily=Helvetica;fontSize=16;rounded=1;shadow=0;strokeColor=default;startArrow=none;startFill=0;endArrow=none;endFill=0;" parent="1" source="IcSTJW2ZjOs-U5tJtDkX-1" target="IcSTJW2ZjOs-U5tJtDkX-4" edge="1">
          <mxGeometry relative="1" as="geometry" />
        </mxCell>
        <mxCell id="IcSTJW2ZjOs-U5tJtDkX-1" value="s1" style="sketch=0;points=[[0.015,0.015,0],[0.985,0.015,0],[0.985,0.985,0],[0.015,0.985,0],[0.25,0,0],[0.5,0,0],[0.75,0,0],[1,0.25,0],[1,0.5,0],[1,0.75,0],[0.75,1,0],[0.5,1,0],[0.25,1,0],[0,0.75,0],[0,0.5,0],[0,0.25,0]];verticalLabelPosition=bottom;html=1;verticalAlign=top;aspect=fixed;align=center;pointerEvents=1;shape=mxgraph.cisco19.rect;prIcon=l2_switch;fillColor=#FAFAFA;strokeColor=#005073;hachureGap=4;jiggle=2;curveFitting=1;fontFamily=Helvetica;fontSize=20;" parent="1" vertex="1">
          <mxGeometry x="150" y="240" width="50" height="50" as="geometry" />
        </mxCell>
        <mxCell id="IcSTJW2ZjOs-U5tJtDkX-17" style="hachureGap=4;orthogonalLoop=1;jettySize=auto;html=1;exitX=0.5;exitY=0;exitDx=0;exitDy=0;exitPerimeter=0;entryX=1;entryY=0.5;entryDx=0;entryDy=0;entryPerimeter=0;fontFamily=Helvetica;fontSize=16;rounded=1;shadow=0;strokeColor=default;startArrow=none;startFill=0;endArrow=none;endFill=0;" parent="1" source="IcSTJW2ZjOs-U5tJtDkX-2" target="IcSTJW2ZjOs-U5tJtDkX-3" edge="1">
          <mxGeometry relative="1" as="geometry" />
        </mxCell>
        <mxCell id="IcSTJW2ZjOs-U5tJtDkX-2" value="s4" style="sketch=0;points=[[0.015,0.015,0],[0.985,0.015,0],[0.985,0.985,0],[0.015,0.985,0],[0.25,0,0],[0.5,0,0],[0.75,0,0],[1,0.25,0],[1,0.5,0],[1,0.75,0],[0.75,1,0],[0.5,1,0],[0.25,1,0],[0,0.75,0],[0,0.5,0],[0,0.25,0]];verticalLabelPosition=bottom;html=1;verticalAlign=top;aspect=fixed;align=center;pointerEvents=1;shape=mxgraph.cisco19.rect;prIcon=l2_switch;fillColor=#FAFAFA;strokeColor=#005073;hachureGap=4;jiggle=2;curveFitting=1;fontFamily=Helvetica;fontSize=20;" parent="1" vertex="1">
          <mxGeometry x="550" y="240" width="50" height="50" as="geometry" />
        </mxCell>
        <mxCell id="IcSTJW2ZjOs-U5tJtDkX-18" style="hachureGap=4;orthogonalLoop=1;jettySize=auto;html=1;exitX=0;exitY=0.5;exitDx=0;exitDy=0;exitPerimeter=0;entryX=1;entryY=0.25;entryDx=0;entryDy=0;entryPerimeter=0;fontFamily=Helvetica;fontSize=16;rounded=1;shadow=0;strokeColor=default;startArrow=none;startFill=0;endArrow=none;endFill=0;" parent="1" source="IcSTJW2ZjOs-U5tJtDkX-3" target="IcSTJW2ZjOs-U5tJtDkX-1" edge="1">
          <mxGeometry relative="1" as="geometry" />
        </mxCell>
        <mxCell id="IcSTJW2ZjOs-U5tJtDkX-3" value="s3" style="sketch=0;points=[[0.015,0.015,0],[0.985,0.015,0],[0.985,0.985,0],[0.015,0.985,0],[0.25,0,0],[0.5,0,0],[0.75,0,0],[1,0.25,0],[1,0.5,0],[1,0.75,0],[0.75,1,0],[0.5,1,0],[0.25,1,0],[0,0.75,0],[0,0.5,0],[0,0.25,0]];verticalLabelPosition=bottom;html=1;verticalAlign=top;aspect=fixed;align=center;pointerEvents=1;shape=mxgraph.cisco19.rect;prIcon=l2_switch;fillColor=#FAFAFA;strokeColor=#005073;hachureGap=4;jiggle=2;curveFitting=1;fontFamily=Helvetica;fontSize=20;" parent="1" vertex="1">
          <mxGeometry x="438" y="80" width="50" height="50" as="geometry" />
        </mxCell>
        <mxCell id="IcSTJW2ZjOs-U5tJtDkX-19" style="hachureGap=4;orthogonalLoop=1;jettySize=auto;html=1;entryX=0;entryY=0.25;entryDx=0;entryDy=0;entryPerimeter=0;fontFamily=Helvetica;fontSize=16;rounded=1;shadow=0;strokeColor=default;startArrow=none;startFill=0;endArrow=none;endFill=0;exitX=1;exitY=0.5;exitDx=0;exitDy=0;exitPerimeter=0;" parent="1" source="IcSTJW2ZjOs-U5tJtDkX-4" target="IcSTJW2ZjOs-U5tJtDkX-2" edge="1">
          <mxGeometry relative="1" as="geometry">
            <mxPoint x="300" y="90" as="sourcePoint" />
          </mxGeometry>
        </mxCell>
        <mxCell id="IcSTJW2ZjOs-U5tJtDkX-4" value="s2" style="sketch=0;points=[[0.015,0.015,0],[0.985,0.015,0],[0.985,0.985,0],[0.015,0.985,0],[0.25,0,0],[0.5,0,0],[0.75,0,0],[1,0.25,0],[1,0.5,0],[1,0.75,0],[0.75,1,0],[0.5,1,0],[0.25,1,0],[0,0.75,0],[0,0.5,0],[0,0.25,0]];verticalLabelPosition=bottom;html=1;verticalAlign=top;aspect=fixed;align=center;pointerEvents=1;shape=mxgraph.cisco19.rect;prIcon=l2_switch;fillColor=#FAFAFA;strokeColor=#005073;hachureGap=4;jiggle=2;curveFitting=1;fontFamily=Helvetica;fontSize=20;" parent="1" vertex="1">
          <mxGeometry x="240" y="80" width="50" height="50" as="geometry" />
        </mxCell>
        <mxCell id="IcSTJW2ZjOs-U5tJtDkX-15" style="hachureGap=4;orthogonalLoop=1;jettySize=auto;html=1;exitX=0.5;exitY=0;exitDx=0;exitDy=0;exitPerimeter=0;entryX=0.015;entryY=0.985;entryDx=0;entryDy=0;entryPerimeter=0;fontFamily=Helvetica;fontSize=16;rounded=1;shadow=0;strokeColor=default;startArrow=none;startFill=0;endArrow=none;endFill=0;" parent="1" source="IcSTJW2ZjOs-U5tJtDkX-5" target="IcSTJW2ZjOs-U5tJtDkX-1" edge="1">
          <mxGeometry relative="1" as="geometry" />
        </mxCell>
        <mxCell id="IcSTJW2ZjOs-U5tJtDkX-5" value="h1" style="points=[[0.03,0.03,0],[0.5,0,0],[0.97,0.03,0],[1,0.4,0],[0.97,0.745,0],[0.5,1,0],[0.03,0.745,0],[0,0.4,0]];verticalLabelPosition=bottom;sketch=0;html=1;verticalAlign=top;aspect=fixed;align=center;pointerEvents=1;shape=mxgraph.cisco19.workstation;fillColor=#005073;strokeColor=none;hachureGap=4;jiggle=2;curveFitting=1;fontFamily=Helvetica;fontSize=20;" parent="1" vertex="1">
          <mxGeometry x="30" y="360" width="50" height="40" as="geometry" />
        </mxCell>
        <mxCell id="IcSTJW2ZjOs-U5tJtDkX-21" style="hachureGap=4;orthogonalLoop=1;jettySize=auto;html=1;exitX=0.5;exitY=0;exitDx=0;exitDy=0;exitPerimeter=0;entryX=0.985;entryY=0.985;entryDx=0;entryDy=0;entryPerimeter=0;fontFamily=Helvetica;fontSize=16;rounded=1;shadow=0;strokeColor=default;startArrow=none;startFill=0;endArrow=none;endFill=0;" parent="1" source="IcSTJW2ZjOs-U5tJtDkX-20" target="IcSTJW2ZjOs-U5tJtDkX-2" edge="1">
          <mxGeometry relative="1" as="geometry" />
        </mxCell>
        <mxCell id="IcSTJW2ZjOs-U5tJtDkX-20" value="h2" style="points=[[0.03,0.03,0],[0.5,0,0],[0.97,0.03,0],[1,0.4,0],[0.97,0.745,0],[0.5,1,0],[0.03,0.745,0],[0,0.4,0]];verticalLabelPosition=bottom;sketch=0;html=1;verticalAlign=top;aspect=fixed;align=center;pointerEvents=1;shape=mxgraph.cisco19.workstation;fillColor=#005073;strokeColor=none;hachureGap=4;jiggle=2;curveFitting=1;fontFamily=Helvetica;fontSize=20;" parent="1" vertex="1">
          <mxGeometry x="670" y="360" width="50" height="40" as="geometry" />
        </mxCell>
        <mxCell id="IcSTJW2ZjOs-U5tJtDkX-23" value="0" style="text;html=1;align=center;verticalAlign=middle;resizable=0;points=[];autosize=1;strokeColor=none;fillColor=none;fontSize=20;fontFamily=Helvetica;" parent="1" vertex="1">
          <mxGeometry x="30" y="330" width="30" height="40" as="geometry" />
        </mxCell>
        <mxCell id="IcSTJW2ZjOs-U5tJtDkX-24" value="0" style="text;html=1;align=center;verticalAlign=middle;resizable=0;points=[];autosize=1;strokeColor=none;fillColor=none;fontSize=20;fontFamily=Helvetica;" parent="1" vertex="1">
          <mxGeometry x="690" y="330" width="30" height="40" as="geometry" />
        </mxCell>
        <mxCell id="IcSTJW2ZjOs-U5tJtDkX-25" value="1" style="text;html=1;align=center;verticalAlign=middle;resizable=0;points=[];autosize=1;strokeColor=none;fillColor=none;fontSize=20;fontFamily=Helvetica;" parent="1" vertex="1">
          <mxGeometry x="120" y="260" width="30" height="40" as="geometry" />
        </mxCell>
        <mxCell id="IcSTJW2ZjOs-U5tJtDkX-26" value="1" style="text;html=1;align=center;verticalAlign=middle;resizable=0;points=[];autosize=1;strokeColor=none;fillColor=none;fontSize=20;fontFamily=Helvetica;" parent="1" vertex="1">
          <mxGeometry x="599" y="261" width="30" height="40" as="geometry" />
        </mxCell>
        <mxCell id="IcSTJW2ZjOs-U5tJtDkX-27" value="1" style="text;html=1;align=center;verticalAlign=middle;resizable=0;points=[];autosize=1;strokeColor=none;fillColor=none;fontSize=20;fontFamily=Helvetica;" parent="1" vertex="1">
          <mxGeometry x="214" y="80" width="30" height="40" as="geometry" />
        </mxCell>
        <mxCell id="IcSTJW2ZjOs-U5tJtDkX-28" value="1" style="text;html=1;align=center;verticalAlign=middle;resizable=0;points=[];autosize=1;strokeColor=none;fillColor=none;fontSize=20;fontFamily=Helvetica;" parent="1" vertex="1">
          <mxGeometry x="415" y="105" width="30" height="40" as="geometry" />
        </mxCell>
        <mxCell id="IcSTJW2ZjOs-U5tJtDkX-29" value="2" style="text;html=1;align=center;verticalAlign=middle;resizable=0;points=[];autosize=1;strokeColor=none;fillColor=none;fontSize=20;fontFamily=Helvetica;" parent="1" vertex="1">
          <mxGeometry x="150" y="210" width="30" height="40" as="geometry" />
        </mxCell>
        <mxCell id="IcSTJW2ZjOs-U5tJtDkX-30" value="3" style="text;html=1;align=center;verticalAlign=middle;resizable=0;points=[];autosize=1;strokeColor=none;fillColor=none;fontSize=20;fontFamily=Helvetica;" parent="1" vertex="1">
          <mxGeometry x="200" y="210" width="30" height="40" as="geometry" />
        </mxCell>
        <mxCell id="IcSTJW2ZjOs-U5tJtDkX-31" value="2" style="text;html=1;align=center;verticalAlign=middle;resizable=0;points=[];autosize=1;strokeColor=none;fillColor=none;fontSize=20;fontFamily=Helvetica;" parent="1" vertex="1">
          <mxGeometry x="285" y="106" width="30" height="40" as="geometry" />
        </mxCell>
        <mxCell id="IcSTJW2ZjOs-U5tJtDkX-32" value="2" style="text;html=1;align=center;verticalAlign=middle;resizable=0;points=[];autosize=1;strokeColor=none;fillColor=none;fontSize=20;fontFamily=Helvetica;" parent="1" vertex="1">
          <mxGeometry x="520" y="210" width="30" height="40" as="geometry" />
        </mxCell>
        <mxCell id="IcSTJW2ZjOs-U5tJtDkX-33" value="2" style="text;html=1;align=center;verticalAlign=middle;resizable=0;points=[];autosize=1;strokeColor=none;fillColor=none;fontSize=20;fontFamily=Helvetica;" parent="1" vertex="1">
          <mxGeometry x="488" y="80" width="30" height="40" as="geometry" />
        </mxCell>
        <mxCell id="IcSTJW2ZjOs-U5tJtDkX-34" value="3" style="text;html=1;align=center;verticalAlign=middle;resizable=0;points=[];autosize=1;strokeColor=none;fillColor=none;fontSize=20;fontFamily=Helvetica;" parent="1" vertex="1">
          <mxGeometry x="570" y="210" width="30" height="40" as="geometry" />
        </mxCell>
        <mxCell id="zuttl3p_bnv3IiQKuOGB-2" style="edgeStyle=orthogonalEdgeStyle;rounded=0;orthogonalLoop=1;jettySize=auto;html=1;exitX=1;exitY=0.5;exitDx=0;exitDy=0;exitPerimeter=0;entryX=0;entryY=0.5;entryDx=0;entryDy=0;entryPerimeter=0;endArrow=none;endFill=0;" edge="1" parent="1" source="IcSTJW2ZjOs-U5tJtDkX-1" target="IcSTJW2ZjOs-U5tJtDkX-2">
          <mxGeometry relative="1" as="geometry" />
        </mxCell>
        <mxCell id="zuttl3p_bnv3IiQKuOGB-4" value="4" style="text;html=1;align=center;verticalAlign=middle;resizable=0;points=[];autosize=1;strokeColor=none;fillColor=none;fontSize=20;fontFamily=Helvetica;" vertex="1" parent="1">
          <mxGeometry x="200" y="260" width="30" height="40" as="geometry" />
        </mxCell>
        <mxCell id="zuttl3p_bnv3IiQKuOGB-5" value="4" style="text;html=1;align=center;verticalAlign=middle;resizable=0;points=[];autosize=1;strokeColor=none;fillColor=none;fontSize=20;fontFamily=Helvetica;" vertex="1" parent="1">
          <mxGeometry x="520" y="260" width="30" height="40" as="geometry" />
        </mxCell>
        <mxCell id="zuttl3p_bnv3IiQKuOGB-6" style="edgeStyle=orthogonalEdgeStyle;rounded=0;orthogonalLoop=1;jettySize=auto;html=1;exitX=1;exitY=0.25;exitDx=0;exitDy=0;exitPerimeter=0;entryX=0;entryY=0.25;entryDx=0;entryDy=0;entryPerimeter=0;endArrow=none;endFill=0;" edge="1" parent="1" source="IcSTJW2ZjOs-U5tJtDkX-4" target="IcSTJW2ZjOs-U5tJtDkX-3">
          <mxGeometry relative="1" as="geometry" />
        </mxCell>
        <mxCell id="zuttl3p_bnv3IiQKuOGB-7" value="3" style="text;html=1;align=center;verticalAlign=middle;resizable=0;points=[];autosize=1;strokeColor=none;fillColor=none;fontSize=20;fontFamily=Helvetica;" vertex="1" parent="1">
          <mxGeometry x="414" y="62" width="30" height="40" as="geometry" />
        </mxCell>
        <mxCell id="zuttl3p_bnv3IiQKuOGB-8" value="3" style="text;html=1;align=center;verticalAlign=middle;resizable=0;points=[];autosize=1;strokeColor=none;fillColor=none;fontSize=20;fontFamily=Helvetica;" vertex="1" parent="1">
          <mxGeometry x="285" y="62" width="30" height="40" as="geometry" />
        </mxCell>
      </root>
    </mxGraphModel>
  </diagram>
</mxfile>
